<svg xmlns="http://www.w3.org/2000/svg" viewBox="0 0 80 80" width="80" height="80" transform="scale(0.7)">
  <path d="M64 48h-8V32h8c8.836 0 16-7.164 16-16S72.836 0 64 0c-8.837 0-16 7.164-16 16v8H32v-8c0-8.836-7.164-16-16-16S0 7.164 0 16s7.164 16 16 16h8v16h-8C7.164 48 0 55.164 0 64s7.164 16 16 16c8.837 0 16-7.164 16-16v-8h16v7.98l-.001.02c0 8.836 7.164 16 16 16s16-7.164 16-16S72.836 48.002 64 48zm0-40a8 8 0 010 16h-8v-8a8 8 0 018-8zM8 16a8 8 0 0116 0v8h-8c-4.418 0-8-3.583-8-8zm8 56a8 8 0 010-16h8v8a8 8 0 01-8 8zm16-24V32h16v16H32zm32 24a8 8 0 01-8-8v-8h7.999A8 8 0 0164 72z"/>
</svg>
